<svg width="400" height="400" viewBox="0 0 400 400" fill="none" xmlns="http://www.w3.org/2000/svg">
<g clip-path="url(#clip0_2218_7294)">
<path d="M200 400C310.457 400 400 310.457 400 200C400 89.5431 310.457 0 200 0C89.5431 0 0 89.5431 0 200C0 310.457 89.5431 400 200 400Z" fill="url(#paint0_linear_2218_7294)"/>
<mask id="mask0_2218_7294" style="mask-type:luminance" maskUnits="userSpaceOnUse" x="114" y="102" width="185" height="195">
<path d="M298.846 102.857H114.285V296.228H298.846V102.857Z" fill="white"/>
</mask>
<g mask="url(#mask0_2218_7294)">
<path d="M298.845 296.229H114.285C116.401 288.313 118.393 280.845 120.508 272.879H268.275C266.06 264.614 264.068 257.146 261.878 249.081H126.881C140.075 199.842 153.019 151.524 166.038 102.857H236.686C228.023 136.065 219.111 168.899 210.224 201.783H187.173C193.944 176.392 200.566 151.524 207.337 126.083H182.991C174.104 159.191 165.317 191.951 156.305 225.507H279.901C286.248 249.18 292.447 272.306 298.845 296.229Z" fill="white"/>
</g>
</g>
<defs>
<linearGradient id="paint0_linear_2218_7294" x1="200" y1="6.25849e-06" x2="140" y2="360" gradientUnits="userSpaceOnUse">
<stop stop-color="#D900FF"/>
<stop offset="1" stop-color="#7403FF"/>
</linearGradient>
<clipPath id="clip0_2218_7294">
<rect width="400" height="400" fill="white"/>
</clipPath>
</defs>
</svg>
